<svg width="14" height="13" viewBox="0 0 14 13" fill="none" xmlns="http://www.w3.org/2000/svg">
<path d="M13.7207 6.75294C13.7207 6.22823 13.6773 5.84532 13.5832 5.44824H7.46924V7.81654H11.058C10.9857 8.4051 10.595 9.29145 9.7267 9.88705L9.71453 9.96634L11.6477 11.434L11.7816 11.4471C13.0116 10.3338 13.7207 8.69581 13.7207 6.75294" fill="#4285F4"/>
<path d="M7.46835 12.9929C9.22655 12.9929 10.7026 12.4256 11.7807 11.4471L9.7258 9.88706C9.17592 10.2629 8.43788 10.5252 7.46835 10.5252C5.74631 10.5252 4.28476 9.41201 3.76375 7.87329L3.68738 7.87965L1.67729 9.40419L1.651 9.4758C2.72184 11.5605 4.92143 12.9929 7.46835 12.9929Z" fill="#34A853"/>
<path d="M3.76487 7.87337C3.6274 7.4763 3.54784 7.05081 3.54784 6.61121C3.54784 6.17155 3.6274 5.74612 3.75764 5.34904L3.75399 5.26447L1.7187 3.71545L1.65211 3.7465C1.21077 4.61158 0.95752 5.58304 0.95752 6.61121C0.95752 7.63937 1.21077 8.61078 1.65211 9.47587L3.76487 7.87337" fill="#FBBC05"/>
<path d="M7.46838 2.69695C8.69117 2.69695 9.516 3.21458 9.98633 3.64715L11.8241 1.88862C10.6954 0.860454 9.22659 0.22937 7.46838 0.22937C4.92145 0.22937 2.72185 1.6617 1.651 3.74638L3.75653 5.34892C4.28477 3.81022 5.74634 2.69695 7.46838 2.69695" fill="#EB4335"/>
</svg>
