<svg width="24" height="24" viewBox="0 0 24 24" fill="none" xmlns="http://www.w3.org/2000/svg">
<path fill-rule="evenodd" clip-rule="evenodd" d="M11.9998 0.537354C8.8864 0.537354 8.4966 0.550093 7.274 0.606133C6.0538 0.662173 5.2202 0.855763 4.4911 1.13914C3.72628 1.42694 3.03346 1.8781 2.46092 2.46117C1.87797 3.03379 1.42683 3.72659 1.1389 4.49133C0.855519 5.22048 0.661289 6.05407 0.605889 7.27484C0.550479 8.49689 0.537109 8.88598 0.537109 12C0.537109 15.114 0.549849 15.5031 0.605889 16.7258C0.661919 17.9459 0.855519 18.7795 1.1389 19.5087C1.4267 20.2735 1.87786 20.9663 2.46092 21.5388C3.09774 22.1756 3.73774 22.5679 4.4911 22.8609C5.2202 23.1442 6.0538 23.3385 7.274 23.3939C8.4966 23.4493 8.8864 23.4626 11.9998 23.4626C15.1131 23.4626 15.5029 23.4499 16.7255 23.3939C17.9457 23.3378 18.7793 23.1442 19.5084 22.8609C20.2732 22.573 20.966 22.1219 21.5386 21.5388C22.1754 20.902 22.5677 20.262 22.8606 19.5087C23.144 18.7795 23.3382 17.9459 23.3936 16.7258C23.449 15.5031 23.4624 15.1134 23.4624 12C23.4624 8.88662 23.4497 8.49689 23.3936 7.27421C23.3376 6.05407 23.144 5.22048 22.8606 4.49133C22.5728 3.72653 22.1216 3.03371 21.5386 2.46117C20.966 1.87822 20.2732 1.42707 19.5084 1.13914C18.7793 0.855763 17.9457 0.661533 16.7249 0.606133C15.5029 0.550733 15.1138 0.537354 11.9998 0.537354ZM11.9992 15.8258C11.497 15.8258 10.9996 15.7269 10.5356 15.5347C10.0715 15.3425 9.6499 15.0607 9.2947 14.7056C8.9396 14.3504 8.6579 13.9288 8.4657 13.4648C8.2734 13.0007 8.1745 12.5034 8.1745 12.0011C8.1745 11.4988 8.2734 11.0015 8.4657 10.5375C8.6579 10.0734 8.9396 9.6518 9.2947 9.2966C9.6499 8.94149 10.0715 8.65976 10.5356 8.46755C10.9996 8.27534 11.497 8.17641 11.9992 8.17641C13.0136 8.17641 13.9864 8.57937 14.7037 9.2966C15.421 10.0139 15.8239 10.9867 15.8239 12.0011C15.8239 13.0155 15.421 13.9883 14.7037 14.7056C13.9864 15.4229 13.0136 15.8258 11.9992 15.8258ZM11.9992 6.10932C10.4366 6.10932 8.938 6.73006 7.8331 7.83498C6.7282 8.93991 6.1074 10.4385 6.1074 12.0011C6.1074 13.5637 6.7282 15.0623 7.8331 16.1672C8.938 17.2722 10.4366 17.8929 11.9992 17.8929C13.5618 17.8929 15.0604 17.2722 16.1654 16.1672C17.2703 15.0623 17.891 13.5637 17.891 12.0011C17.891 10.4385 17.2703 8.93991 16.1654 7.83498C15.0604 6.73006 13.5618 6.10932 11.9992 6.10932ZM19.6053 6.00233C19.6053 6.3717 19.4586 6.72594 19.1974 6.98713C18.9362 7.24831 18.582 7.39504 18.2126 7.39504C17.8432 7.39504 17.489 7.24831 17.2278 6.98713C16.9666 6.72594 16.8199 6.3717 16.8199 6.00233C16.8199 5.63296 16.9666 5.27872 17.2278 5.01753C17.489 4.75635 17.8432 4.60962 18.2126 4.60962C18.582 4.60962 18.9362 4.75635 19.1974 5.01753C19.4586 5.27872 19.6053 5.63296 19.6053 6.00233Z" fill="#1E2330"/>
</svg>
