<svg width="18" height="18" viewBox="0 0 18 18" fill="none" xmlns="http://www.w3.org/2000/svg">
<path d="M17.9683 15.448C17.9586 15.7932 17.8796 16.1329 17.7361 16.4469C17.5925 16.7609 17.3874 17.0429 17.1327 17.2761C16.8781 17.5093 16.5791 17.689 16.2537 17.8044C15.9283 17.9198 15.583 17.9687 15.2383 17.948C13.0853 17.96 10.9323 17.948 8.7793 17.948C8.64669 17.948 8.51951 17.8953 8.42574 17.8016C8.33197 17.7078 8.2793 17.5806 8.2793 17.448C8.2793 17.3154 8.33197 17.1882 8.42574 17.0945C8.51951 17.0007 8.64669 16.948 8.7793 16.948C10.9793 16.948 13.1793 16.98 15.3793 16.948C16.4863 16.932 16.9683 16.1 16.9683 15.11V2.64701C16.9755 2.3324 16.8867 2.02305 16.7138 1.76011C16.5409 1.49718 16.292 1.2931 16.0003 1.17501C15.6551 1.08031 15.2958 1.04813 14.9393 1.08001H8.7793C8.64669 1.08001 8.51951 1.02734 8.42574 0.933568C8.33197 0.839799 8.2793 0.712622 8.2793 0.580014C8.2793 0.447406 8.33197 0.320229 8.42574 0.226461C8.51951 0.132693 8.64669 0.0800141 8.7793 0.0800141C11.0033 0.0800141 13.2443 -0.0049859 15.4663 0.0800141C15.8066 0.0886197 16.1417 0.164812 16.4523 0.304158C16.7628 0.443503 17.0426 0.643219 17.2752 0.891684C17.5079 1.14015 17.6888 1.4324 17.8074 1.75144C17.9261 2.07047 17.9801 2.40991 17.9663 2.75001L17.9683 15.448Z" fill="black"/>
<path d="M0.175686 8.66302C0.091629 8.74524 0.0422477 8.85652 0.0376864 8.97402C0.0390197 8.98802 0.0370197 9.00235 0.0316863 9.01702C0.0236863 9.03902 0.0316864 9.04402 0.0376864 9.05802C0.0419948 9.17586 0.0913957 9.28755 0.175686 9.37002L3.84469 13.039C3.93899 13.1301 4.06529 13.1805 4.19639 13.1794C4.32749 13.1782 4.45289 13.1256 4.5456 13.0329C4.6383 12.9402 4.69088 12.8148 4.69202 12.6837C4.69316 12.5526 4.64277 12.4263 4.55169 12.332L1.73669 9.51602H12.4787C12.6113 9.51602 12.7385 9.46334 12.8322 9.36957C12.926 9.2758 12.9787 9.14863 12.9787 9.01602C12.9787 8.88341 12.926 8.75623 12.8322 8.66246C12.7385 8.5687 12.6113 8.51602 12.4787 8.51602H1.73669L4.55169 5.70002C4.64277 5.60572 4.69316 5.47941 4.69202 5.34832C4.69088 5.21722 4.6383 5.09181 4.5456 4.99911C4.45289 4.9064 4.32749 4.85382 4.19639 4.85268C4.06529 4.85154 3.93899 4.90194 3.84469 4.99302L0.175686 8.66302Z" fill="black"/>
</svg>
