<svg width="24" height="20" viewBox="0 0 24 20" fill="none" xmlns="http://www.w3.org/2000/svg">
<path d="M24 2.36805C23.1174 2.76905 22.1693 3.03999 21.1726 3.16246C22.1894 2.5382 22.9694 1.54763 23.3373 0.36848C22.386 0.94722 21.3322 1.36773 20.2107 1.59315C19.3123 0.61342 18.0333 0 16.6169 0C13.8984 0 11.6935 2.26076 11.6935 5.0504C11.6935 5.44489 11.7379 5.82855 11.8203 6.1992C7.7266 5.98786 4.1001 3.97746 1.6711 0.92338C1.2483 1.67118 1.0052 2.5382 1.0052 3.46158C1.0052 5.21296 1.8751 6.75951 3.19528 7.6645C2.38774 7.6374 1.62882 7.4109 0.96503 7.0326V7.0976C0.96503 9.5437 2.6615 11.5845 4.915 12.0483C4.5007 12.1632 4.0662 12.2239 3.61807 12.2239C3.30098 12.2239 2.99128 12.1936 2.69109 12.135C3.31789 14.14 5.1359 15.601 7.2911 15.64C5.6052 16.9947 3.48172 17.8021 1.17537 17.8021C0.77794 17.8021 0.3858 17.7783 0 17.7317C2.17951 19.1655 4.767 20 7.5469 20C16.6053 20 21.5573 12.3074 21.5573 5.63563C21.5573 5.41888 21.552 5.19996 21.5425 4.9832C22.5044 4.27008 23.3394 3.38246 23.9979 2.3713L24 2.36805Z" fill="#1E2330"/>
</svg>
