<svg width="30" height="20" viewBox="0 0 30 20" fill="none" xmlns="http://www.w3.org/2000/svg">
<path fill-rule="evenodd" clip-rule="evenodd" d="M26.1639 0.59545C27.3957 0.92727 28.3639 1.89545 28.6911 3.12273C29.2866 5.35 29.2866 10 29.2866 10C29.2866 10 29.2866 14.65 28.6911 16.8773C28.3593 18.1091 27.3911 19.0773 26.1639 19.4045C23.9366 20 15.0002 20 15.0002 20C15.0002 20 6.06841 20 3.83659 19.4045C2.60478 19.0727 1.63659 18.1045 1.30932 16.8773C0.713867 14.65 0.713867 10 0.713867 10C0.713867 10 0.713867 5.35 1.30932 3.12273C1.64114 1.89091 2.60932 0.92273 3.83659 0.59545C6.06841 -5.96046e-08 15.0002 0 15.0002 0C15.0002 0 23.9366 -5.96046e-08 26.1639 0.59545ZM19.5663 9.9993L12.1436 14.2856V5.71289L19.5663 9.9993Z" fill="#1E2330"/>
</svg>
