<svg width="21" height="22" viewBox="0 0 21 22" fill="none" xmlns="http://www.w3.org/2000/svg">
<path d="M18.2168 21.1369H2.2168C1.1168 21.1369 0.216797 20.2369 0.216797 19.1369V8.6869C0.216797 8.0369 0.516797 7.4369 1.0668 7.0369L10.2168 0.636902L19.3668 7.0369C19.9168 7.3869 20.2168 8.0369 20.2168 8.6869V19.1369C20.2168 20.2369 19.3168 21.1369 18.2168 21.1369Z" fill="#78909C"/>
<path d="M4.7168 0.636902V17.1369H15.7168V0.636902H4.7168ZM14.7168 16.1369H5.7168V1.6369H14.7168V16.1369Z" fill="#558B2F"/>
<path d="M15.2168 2.1369C15.2168 2.9869 15.0668 3.6369 14.2168 3.6369C13.3668 3.6369 12.7168 2.9869 12.7168 2.1369C12.7168 1.2869 13.3668 1.1369 14.2168 1.1369C15.0668 1.1369 15.2168 1.2869 15.2168 2.1369ZM6.2168 1.1369C7.0668 1.1369 7.7168 1.2869 7.7168 2.1369C7.7168 2.9869 7.0668 3.6369 6.2168 3.6369C5.3668 3.6369 5.2168 2.9869 5.2168 2.1369C5.2168 1.2869 5.3668 1.1369 6.2168 1.1369Z" fill="#558B2F"/>
<path d="M10.2168 5.6369C10.7691 5.6369 11.2168 5.18919 11.2168 4.6369C11.2168 4.08462 10.7691 3.6369 10.2168 3.6369C9.66451 3.6369 9.2168 4.08462 9.2168 4.6369C9.2168 5.18919 9.66451 5.6369 10.2168 5.6369Z" fill="#558B2F"/>
<path d="M10.2168 13.6369C11.8737 13.6369 13.2168 12.2938 13.2168 10.6369C13.2168 8.98005 11.8737 7.6369 10.2168 7.6369C8.55994 7.6369 7.2168 8.98005 7.2168 10.6369C7.2168 12.2938 8.55994 13.6369 10.2168 13.6369Z" fill="#558B2F"/>
<path d="M18.2168 21.1369H2.2168C1.1168 21.1369 0.216797 20.2369 0.216797 19.1369V9.1369L10.2168 15.6369L20.2168 9.1369V19.1369C20.2168 20.2369 19.3168 21.1369 18.2168 21.1369Z" fill="#CFD8DC"/>
</svg>
